# xmcd CD database file
#
# Track frame offsets:
#	150
#	1718
#	36832
#	61681
#	86305
#	103513
#	129923
#	149739
#	187125
#	204187
#	297094
#
# Disc length: 4042 seconds
#
# Revision: 0
# Processed by: cddbd v1.5.1PL2 Copyright (c) Steve Scherf et al.
# Submitted via: CDex 1.51
#
DISCID=8d0fc80b
DTITLE=Max Colley III and Friends - This I Know
DYEAR=2000
DGENRE=Jazz
TTITLE0=Intro to West End Blues
TTITLE1=No Greater Love
TTITLE2=Pensitiva
TTITLE3=Medley-Body and Soul, Embraceable You, Stardust
TTITLE4=I Got Rhythm
TTITLE5=September Song
TTITLE6=Blue and Boogie
TTITLE7=In Your Own Sweet Way
TTITLE8=Dixie Blues
TTITLE9=Ellington Medley
TTITLE10=Jesus Loves Me
EXTD=YEAR: 2000
EXTT0=
EXTT1=
EXTT2=
EXTT3=
EXTT4=
EXTT5=
EXTT6=
EXTT7=
EXTT8=
EXTT9=
EXTT10=
PLAYORDER=
